<?xml version="1.0" standalone="no"?>
<!DOCTYPE svg PUBLIC "-//W3C//DTD SVG 20010904//EN"
 "http://www.w3.org/TR/2001/REC-SVG-20010904/DTD/svg10.dtd">
<svg version="1.0" xmlns="http://www.w3.org/2000/svg"
 width="576.000000pt" height="576.000000pt" viewBox="0 0 576.000000 576.000000"
 preserveAspectRatio="xMidYMid meet">

<g transform="translate(0.000000,576.000000) scale(0.100000,-0.100000)"
fill="#000000" stroke="none">
<path d="M929 2475 c-117 -251 -143 -315 -129 -315 12 0 30 28 61 95 l44 95
146 0 145 0 43 -95 44 -95 58 0 c33 0 59 2 59 4 0 2 -65 143 -144 312 -107
230 -148 310 -162 312 -16 2 -44 -52 -165 -313z m184 51 c31 -68 57 -126 57
-130 0 -3 -54 -6 -121 -6 -111 0 -121 1 -115 18 18 46 112 242 116 242 3 0 32
-56 63 -124z"/>
<path d="M1490 2475 c0 -272 2 -315 15 -315 13 0 15 40 17 276 l3 275 127
-273 c95 -205 131 -274 145 -276 16 -2 40 41 144 264 l124 268 3 -267 2 -267
55 0 55 0 0 315 0 315 -53 0 -53 0 -113 -245 c-63 -135 -117 -245 -120 -245
-3 0 -57 111 -120 245 l-114 245 -58 0 -59 0 0 -315z"/>
<path d="M2440 2588 c-51 -112 -118 -254 -147 -315 -45 -97 -50 -113 -34 -113
14 0 30 25 62 95 l43 95 145 0 146 0 44 -95 44 -95 58 0 c33 0 59 1 59 3 0 2
-65 142 -145 313 -103 221 -150 310 -162 312 -15 2 -37 -38 -113 -200z m129
-55 c29 -64 55 -123 58 -130 4 -10 -20 -13 -116 -13 -67 0 -121 3 -121 6 0 12
114 254 120 254 3 0 29 -53 59 -117z"/>
<path d="M2950 2475 l0 -315 210 0 c180 0 210 2 210 15 0 13 -24 15 -155 15
l-155 0 0 300 0 300 -55 0 -55 0 0 -315z"/>
<path d="M3602 2776 c-88 -29 -163 -99 -199 -187 -29 -70 -24 -180 10 -251 30
-62 83 -115 149 -150 63 -33 203 -33 270 0 98 49 178 164 178 258 l0 35 -137
-3 c-115 -3 -138 -6 -138 -18 0 -12 17 -16 83 -18 82 -3 82 -3 82 -30 0 -33
-44 -129 -73 -160 -31 -33 -90 -62 -128 -62 -48 0 -113 36 -142 78 -49 70 -61
111 -61 207 0 110 24 174 89 234 71 65 158 67 260 6 31 -19 61 -32 67 -29 15
9 -22 44 -77 72 -61 31 -168 39 -233 18z"/>
<path d="M4311 2768 c-5 -13 -70 -153 -145 -312 -75 -160 -136 -291 -136 -293
0 -2 8 -3 18 -3 12 0 29 27 59 93 l42 92 146 3 146 3 44 -96 44 -95 60 0 60 0
-43 93 c-23 50 -89 192 -146 315 -80 171 -108 222 -122 222 -10 0 -22 -10 -27
-22z m49 -244 c33 -70 60 -128 60 -130 0 -2 -56 -4 -125 -4 l-124 0 45 98 c26
53 52 112 60 130 8 17 17 32 19 32 3 0 32 -57 65 -126z"/>
</g>
</svg>
